<svg xmlns="http://www.w3.org/2000/svg" width="584.814" height="246" viewBox="0 0 584.814 246">
  <g id="Group_96" data-name="Group 96" transform="translate(-365.65 -301.25)">
    <path id="Path_1488" data-name="Path 1488" d="M113.914,194h-3.321V127.571H1.65v-.664L111.257-38.5h3.986L7.3,124.25h103.3V44.536h3.321V124.25h37.2v3.321h-37.2Z" transform="translate(364 346.5)" fill="#d97535"/>
    <path id="Path_1489" data-name="Path 1489" d="M113.914,194h-3.321V127.571H1.65v-.664L111.257-38.5h3.986L7.3,124.25h103.3V44.536h3.321V124.25h37.2v3.321h-37.2Z" transform="translate(799.35 346.5)" fill="#d97535"/>
    <path id="Path_1" data-name="Path 1" d="M245.594,171.236,162.469,88.112,282.722,50.983ZM215.669,0h-6.65a120.3,120.3,0,0,0-82.57,35.466c-47.658,47.658-47.658,124.686,0,171.79a121.746,121.746,0,0,0,172.345,0c47.658-47.658,47.658-124.686,0-171.79A120.3,120.3,0,0,0,216.223,0Z" transform="translate(444.553 302.75)" fill="none" stroke="#d97535" stroke-width="3"/>
  </g>
</svg>
