<svg id="Attach" xmlns="http://www.w3.org/2000/svg" width="19.5" height="13.5" viewBox="0 0 19.5 13.5">
  <g id="Attach-2" data-name="Attach" transform="translate(-0.25 -0.25)">
    <path id="Path" d="M0,6.75A6.75,6.75,0,0,1,6.75,0h8a4.75,4.75,0,0,1,0,9.5H6.607a2.75,2.75,0,0,1,0-5.5h7.857a.75.75,0,0,1,0,1.5H6.607a1.25,1.25,0,0,0,0,2.5H14.75a3.25,3.25,0,0,0,0-6.5h-8a5.25,5.25,0,0,0,0,10.5h7.714a.75.75,0,0,1,0,1.5H6.75A6.75,6.75,0,0,1,0,6.75Z" transform="translate(0.25 0.25)" fill="#f6fbfb"/>
  </g>
</svg>
