<svg xmlns="http://www.w3.org/2000/svg" width="17.5" height="19.33" viewBox="0 0 17.5 19.33">
  <g id="Award" transform="translate(-0.25 -0.25)">
    <path id="award-Shape" d="M3.25,6.5A3.25,3.25,0,1,1,6.5,3.25,3.254,3.254,0,0,1,3.25,6.5Zm0-5A1.75,1.75,0,1,0,5,3.25,1.752,1.752,0,0,0,3.25,1.5Z" transform="translate(5.75 4.25)"/>
    <path id="award-Shape-2" data-name="Shape" d="M12.42,19.33a.753.753,0,0,1-.65-.375L9.191,14.486c-.148.009-.3.014-.441.014s-.3,0-.44-.014l-2.58,4.468a.751.751,0,0,1-.649.375c-.024,0-.049,0-.073,0a.753.753,0,0,1-.637-.5L3.508,16.3l-2.614.513A.749.749,0,0,1,.1,15.7l2.586-4.479a7.25,7.25,0,1,1,12.127,0L17.4,15.7a.75.75,0,0,1-.8,1.111l-2.616-.52-.858,2.526a.751.751,0,0,1-.636.5C12.469,19.329,12.445,19.33,12.42,19.33ZM4.007,14.69a.75.75,0,0,1,.708.508l.54,1.579,1.478-2.56a7.276,7.276,0,0,1-3.027-1.758L2.225,15.025,3.862,14.7A.752.752,0,0,1,4.007,14.69Zm9.786-2.231h0a7.283,7.283,0,0,1-3.027,1.758l1.475,2.555.537-1.581a.748.748,0,0,1,.856-.494l1.638.326-1.48-2.563ZM8.75,1.5A5.75,5.75,0,1,0,14.5,7.25,5.757,5.757,0,0,0,8.75,1.5Z" transform="translate(0.25 0.25)"/>
  </g>
</svg>
