<svg id="Download" xmlns="http://www.w3.org/2000/svg" width="24" height="24" viewBox="0 0 24 24">
  <g id="Download-2" data-name="Download" transform="translate(4 3)">
    <path id="Shape" d="M5.768,13.353a1.376,1.376,0,0,1-.809-.261l-.6-.428A15.983,15.983,0,0,1,.2,8.268a1.26,1.26,0,0,1,.97-1.935l1.49-.109.235-.016h.017A37.362,37.362,0,0,1,3.02,1.362,1.484,1.484,0,0,1,4.506,0H7.031A1.484,1.484,0,0,1,8.517,1.362a37.2,37.2,0,0,1,.107,4.846l.127.008.125.009,1.49.109a1.26,1.26,0,0,1,.97,1.935,15.992,15.992,0,0,1-4.162,4.395l-.6.428A1.379,1.379,0,0,1,5.768,13.353ZM4.514,1.5A35.805,35.805,0,0,0,4.45,6.864a.75.75,0,0,1-.711.8c-.322.015-.648.035-.97.059L1.687,7.8a14.543,14.543,0,0,0,3.551,3.646l.531.382.532-.382A14.522,14.522,0,0,0,9.85,7.8L8.768,7.721C8.446,7.7,8.12,7.677,7.8,7.662a.75.75,0,0,1-.712-.8A35.685,35.685,0,0,0,7.024,1.5Z" transform="translate(2.232 0.25)" fill="#fff"/>
    <path id="Path" d="M1.5.75A.75.75,0,0,0,0,.75v2A1.75,1.75,0,0,0,1.75,4.5h12A1.75,1.75,0,0,0,15.5,2.75v-2a.75.75,0,0,0-1.5,0v2a.25.25,0,0,1-.25.25h-12a.25.25,0,0,1-.25-.25Z" transform="translate(0.25 13.25)" fill="#fff"/>
  </g>
</svg>
