<svg xmlns="http://www.w3.org/2000/svg" width="22" height="14" viewBox="0 0 22 14">
  <g id="Eye" transform="translate(-2.25 -5.25)">
    <g id="Eye-2" data-name="Eye" transform="translate(2.25 5.25)">
      <path id="Shape" d="M4.231,7.777A4.075,4.075,0,0,1,0,3.889,4.076,4.076,0,0,1,4.231,0a4.075,4.075,0,0,1,4.23,3.889A4.075,4.075,0,0,1,4.231,7.777Zm0-6.222A2.445,2.445,0,0,0,1.693,3.889,2.445,2.445,0,0,0,4.231,6.223,2.445,2.445,0,0,0,6.769,3.889,2.445,2.445,0,0,0,4.231,1.556Z" transform="translate(6.769 3.111)" fill="#D97535"/>
      <path id="Shape-2" data-name="Shape" d="M11,14a13.569,13.569,0,0,1-7.694-2.494A10.656,10.656,0,0,1,.949,9.29,4,4,0,0,1,0,7,4,4,0,0,1,.949,4.71,10.656,10.656,0,0,1,3.305,2.494,13.569,13.569,0,0,1,11,0a13.577,13.577,0,0,1,7.7,2.494A10.682,10.682,0,0,1,21.051,4.71,4.01,4.01,0,0,1,22,7a4.01,4.01,0,0,1-.949,2.29,10.682,10.682,0,0,1-2.356,2.216A13.577,13.577,0,0,1,11,14ZM11,1.556A11.767,11.767,0,0,0,4.336,3.728a9.046,9.046,0,0,0-2,1.869A2.526,2.526,0,0,0,1.693,7a2.526,2.526,0,0,0,.647,1.4,9.046,9.046,0,0,0,2,1.869A11.767,11.767,0,0,0,11,12.444a11.775,11.775,0,0,0,6.665-2.172,9.046,9.046,0,0,0,2-1.869A2.526,2.526,0,0,0,20.307,7a2.526,2.526,0,0,0-.647-1.4,9.046,9.046,0,0,0-2-1.869A11.775,11.775,0,0,0,11,1.556Z" transform="translate(0 0)" fill="#D97535"/>
    </g>
  </g>
</svg>
