<svg id="Facebook" xmlns="http://www.w3.org/2000/svg" width="11.4" height="19.5" viewBox="0 0 11.4 19.5" aria-label="fb-alt">
    <title id="fb-alt">Мы в Facebook</title>
    <g id="Facebook-2" data-name="Facebook" transform="translate(-0.25 -0.25)">
        <path id="Shape" d="M7.05,19.5H3.45a.751.751,0,0,1-.75-.751V12.3H.75A.751.751,0,0,1,0,11.55V7.95A.751.751,0,0,1,.75,7.2H2.7V5.25A5.251,5.251,0,0,1,7.95,0h2.7A.751.751,0,0,1,11.4.75v3.6a.751.751,0,0,1-.751.751H7.95A.148.148,0,0,0,7.8,5.25V7.2H10.65a.75.75,0,0,1,.728.931l-.9,3.6a.75.75,0,0,1-.728.569H7.8V18.75A.751.751,0,0,1,7.05,19.5ZM1.5,8.7v2.1H3.45a.751.751,0,0,1,.751.75V18H6.3V11.55a.751.751,0,0,1,.75-.75H9.165l.525-2.1H7.05A.751.751,0,0,1,6.3,7.95V5.25A1.65,1.65,0,0,1,7.95,3.6H9.9V1.5H7.95A3.749,3.749,0,0,0,4.2,5.25v2.7A.751.751,0,0,1,3.45,8.7Z" transform="translate(0.25 0.25)" fill="#5f6a75"/>
    </g>
</svg>
