<svg xmlns="http://www.w3.org/2000/svg" width="16.703" height="18.342" viewBox="0 0 16.703 18.342">
  <g id="Home" transform="translate(-0.648 -0.407)">
    <path id="home-Shape" d="M15.2,18.342H11.035a.751.751,0,0,1-.75-.75V11.381H6.416v6.211a.751.751,0,0,1-.75.75H1.5a.978.978,0,0,1-.971-.832L.346,16.353A28.749,28.749,0,0,1,.473,6.7a2.232,2.232,0,0,1,.654-1.217l4.627-4.44a3.749,3.749,0,0,1,5.192,0l4.627,4.44A2.232,2.232,0,0,1,16.228,6.7a28.749,28.749,0,0,1,.128,9.653l-.181,1.157A.978.978,0,0,1,15.2,18.342ZM5.666,9.881h5.368a.751.751,0,0,1,.75.75v6.212h2.976l.113-.721a27.267,27.267,0,0,0-.121-9.151.752.752,0,0,0-.218-.405L9.908,2.127a2.249,2.249,0,0,0-3.115,0L2.166,6.565a.752.752,0,0,0-.218.405,27.267,27.267,0,0,0-.121,9.151l.113.721H4.917V10.631A.751.751,0,0,1,5.666,9.881Z" transform="translate(0.649 0.408)"/>
  </g>
</svg>
