<svg id="Instagram" xmlns="http://www.w3.org/2000/svg" width="18.884" height="18.915" viewBox="0 0 18.884 18.915" aria-labeled="id-alt">
<title id="ig-alt">Мы в Instagram</title>
  <g id="Instagram-2" data-name="Instagram" transform="translate(-0.558 -0.542)">
    <path id="Path" d="M0,1A1,1,0,1,1,1,2,1,1,0,0,1,0,1Z" transform="translate(14 4)" fill="#5f6a75"/>
    <path id="Shape" d="M4.75,9.5A4.75,4.75,0,1,1,9.5,4.75,4.756,4.756,0,0,1,4.75,9.5Zm0-8A3.25,3.25,0,1,0,8,4.75,3.254,3.254,0,0,0,4.75,1.5Z" transform="translate(5.25 5.25)" fill="#5f6a75"/>
    <path id="Shape-2" data-name="Shape" d="M9.442,18.915a47.567,47.567,0,0,1-5.258-.29,4.426,4.426,0,0,1-2.6-1.242,4.364,4.364,0,0,1-1.271-2.59,46.04,46.04,0,0,1,0-10.669,4.364,4.364,0,0,1,1.271-2.59A4.426,4.426,0,0,1,4.184.291,47.664,47.664,0,0,1,14.7.291a4.425,4.425,0,0,1,2.6,1.242,4.364,4.364,0,0,1,1.271,2.59,45.941,45.941,0,0,1,0,10.669,4.364,4.364,0,0,1-1.271,2.59,4.425,4.425,0,0,1-2.6,1.242A47.585,47.585,0,0,1,9.442,18.915Zm0-17.415a46,46,0,0,0-5.092.281A2.9,2.9,0,0,0,1.8,4.3a44.426,44.426,0,0,0,0,10.32,2.9,2.9,0,0,0,2.55,2.516,46.108,46.108,0,0,0,5.092.281,46.108,46.108,0,0,0,5.092-.281,2.9,2.9,0,0,0,2.55-2.516,44.525,44.525,0,0,0,0-10.32,2.9,2.9,0,0,0-2.55-2.516A46,46,0,0,0,9.442,1.5Z" transform="translate(0.558 0.542)" fill="#5f6a75"/>
  </g>
</svg>
