<svg xmlns="http://www.w3.org/2000/svg" width="37.937" height="46.333" viewBox="0 0 37.937 46.333">
  <g id="Location" transform="translate(-3.744 -1.5)">
    <g id="Location-2" data-name="Location" transform="translate(3.744 1.5)">
      <path id="Path" d="M0,7.467a7.467,7.467,0,1,1,7.467,7.467A7.467,7.467,0,0,1,0,7.467Z" transform="translate(11.502 12.062)" fill="#d97535"/>
      <path id="Shape" d="M18.969,46.333A4.435,4.435,0,0,1,15.523,44.7L4.512,31.233A19.97,19.97,0,0,1,.068,16.95,18.466,18.466,0,0,1,18.473,0h.993a18.466,18.466,0,0,1,18.4,16.95,19.966,19.966,0,0,1-4.443,14.283L22.414,44.7A4.433,4.433,0,0,1,18.969,46.333Zm0-37.717A10.913,10.913,0,1,0,29.882,19.529,10.926,10.926,0,0,0,18.968,8.616Z" transform="translate(0 0)" fill="#d97535"/>
    </g>
  </g>
</svg>