<svg xmlns="http://www.w3.org/2000/svg" width="12.697" height="17.167" viewBox="0 0 12.697 17.167">
  <g id="sandglass" transform="translate(-0.652 -0.416)">
    <path id="sandglass-Path" d="M1.22,2.28a.75.75,0,0,0,1.061,0l1-1A.75.75,0,0,0,2.75,0h-2A.75.75,0,0,0,.22,1.28Z" transform="translate(5.25 3.25)"/>
    <path id="sandglass-Path-2" data-name="Path" d="M1.22.22A.75.75,0,0,1,2.28.22l1,1A.75.75,0,0,1,2.75,2.5h-2A.75.75,0,0,1,.22,1.22Z" transform="translate(5.25 12.25)"/>
    <path id="sandglass-Shape" d="M6.349,17.167c-1.287,0-2.589-.057-3.871-.169l-1.174-.1A1.427,1.427,0,0,1,.169,14.8,20.986,20.986,0,0,1,5.013,8.744L5.2,8.583l-.187-.161A20.986,20.986,0,0,1,.169,2.365,1.427,1.427,0,0,1,1.3.272l1.174-.1C3.76.057,5.063,0,6.349,0S8.939.057,10.22.169l1.174.1A1.428,1.428,0,0,1,12.53,2.365,21.016,21.016,0,0,1,7.686,8.422L7.5,8.583l.188.161A21.016,21.016,0,0,1,12.53,14.8a1.428,1.428,0,0,1-1.136,2.093L10.22,17C8.939,17.11,7.636,17.167,6.349,17.167Zm0-7.59,0,0-.351.3a19.5,19.5,0,0,0-4.448,5.53l1.065.093c1.238.108,2.5.163,3.74.163s2.5-.055,3.741-.163l1.064-.093a19.5,19.5,0,0,0-4.447-5.53l-.351-.3,0,0H6.346Zm0-8.077c-1.243,0-2.5.055-3.74.163l-1.065.093a19.5,19.5,0,0,0,4.448,5.53l.351.3.006,0,.006,0,.351-.3a19.5,19.5,0,0,0,4.447-5.53L10.09,1.663C8.851,1.555,7.592,1.5,6.349,1.5Z" transform="translate(0.651 0.417)"/>
  </g>
</svg>
